<?xml version="1.0" encoding="UTF-8"?>
<svg width="17px" height="15px" viewBox="0 0 17 15" version="1.1" xmlns="http://www.w3.org/2000/svg" xmlns:xlink="http://www.w3.org/1999/xlink">
    <!-- Generator: Sketch 58 (84663) - https://sketch.com -->
    <title>icons8-mailer</title>
    <desc>Created with Sketch.</desc>
    <g id="Page-1" stroke="none" stroke-width="1" fill="none" fill-rule="evenodd">
        <g id="Desktop-HD-Copy" transform="translate(-130.000000, -3467.000000)" fill="#FFFFFF" fill-rule="nonzero">
            <g id="icons8-mailer" transform="translate(130.000000, 3467.000000)">
                <path d="M15.71225,0.7875 L12.95655,0.028125 C12.88855,0.009375 12.8197,0 12.75,0 L1.7,0 C0.76245,0 0,0.8409375 0,1.875 L0,13.125 C0,14.1590625 0.76245,15 1.7,15 L12.75,15 C12.8197,15 12.88855,14.990625 12.95655,14.971875 L15.7131,14.2115625 C16.47045,14.0034375 17,13.2553125 17,12.3928125 L17,2.6071875 C17,1.7446875 16.47045,0.9965625 15.71225,0.7875 Z M11.9,7.96875 L11.9,8.90625 C11.9,9.165 11.7096,9.375 11.475,9.375 L5.525,9.375 C5.2904,9.375 5.1,9.165 5.1,8.90625 L5.1,7.96875 C5.1,7.71 5.2904,7.5 5.525,7.5 L11.475,7.5 C11.7096,7.5 11.9,7.71 11.9,7.96875 Z M4.25,2.34375 L4.25,4.21875 C4.25,4.4775 4.0596,4.6875 3.825,4.6875 L2.125,4.6875 C1.8904,4.6875 1.7,4.4775 1.7,4.21875 L1.7,2.34375 C1.7,2.085 1.8904,1.875 2.125,1.875 L3.825,1.875 C4.0596,1.875 4.25,2.085 4.25,2.34375 Z M5.525,13.125 C5.2904,13.125 5.1,12.915 5.1,12.65625 L5.1,11.71875 C5.1,11.46 5.2904,11.25 5.525,11.25 L11.475,11.25 C11.7096,11.25 11.9,11.46 11.9,11.71875 L11.9,12.65625 C11.9,12.915 11.7096,13.125 11.475,13.125 L5.525,13.125 Z M14.97785,12.481875 L14.12785,12.71625 C13.8601,12.7903125 13.6,12.56625 13.6,12.2615625 L13.6,2.7384375 C13.6,2.43375 13.8601,2.2096875 14.12785,2.28375 L14.97785,2.518125 C15.1674,2.570625 15.3,2.758125 15.3,2.9728125 L15.3,12.0271875 C15.3,12.241875 15.1674,12.429375 14.97785,12.481875 Z" id="Shape"></path>
            </g>
        </g>
    </g>
</svg>