<?xml version="1.0" encoding="UTF-8"?>
<svg width="18px" height="18px" viewBox="0 0 18 18" version="1.1" xmlns="http://www.w3.org/2000/svg" xmlns:xlink="http://www.w3.org/1999/xlink">
    <!-- Generator: Sketch 58 (84663) - https://sketch.com -->
    <title>icons8-squared_menu</title>
    <desc>Created with Sketch.</desc>
    <g id="Page-1" stroke="none" stroke-width="1" fill="none" fill-rule="evenodd">
        <g id="Mobile" transform="translate(-263.000000, -40.000000)" fill="#FFFFFF" fill-rule="nonzero">
            <g id="icons8-squared_menu" transform="translate(263.000000, 40.000000)">
                <path d="M1,0 C0.448,0 0,0.448 0,1 L0,3 C0,3.552 0.448,4 1,4 L3,4 C3.552,4 4,3.552 4,3 L4,1 C4,0.448 3.552,0 3,0 L1,0 Z M8,0 C7.448,0 7,0.448 7,1 L7,3 C7,3.552 7.448,4 8,4 L10,4 C10.552,4 11,3.552 11,3 L11,1 C11,0.448 10.552,0 10,0 L8,0 Z M15,0 C14.448,0 14,0.448 14,1 L14,3 C14,3.552 14.448,4 15,4 L17,4 C17.552,4 18,3.552 18,3 L18,1 C18,0.448 17.552,0 17,0 L15,0 Z M1,7 C0.448,7 0,7.448 0,8 L0,10 C0,10.552 0.448,11 1,11 L3,11 C3.552,11 4,10.552 4,10 L4,8 C4,7.448 3.552,7 3,7 L1,7 Z M8,7 C7.448,7 7,7.448 7,8 L7,10 C7,10.552 7.448,11 8,11 L10,11 C10.552,11 11,10.552 11,10 L11,8 C11,7.448 10.552,7 10,7 L8,7 Z M15,7 C14.448,7 14,7.448 14,8 L14,10 C14,10.552 14.448,11 15,11 L17,11 C17.552,11 18,10.552 18,10 L18,8 C18,7.448 17.552,7 17,7 L15,7 Z M1,14 C0.448,14 0,14.448 0,15 L0,17 C0,17.552 0.448,18 1,18 L3,18 C3.552,18 4,17.552 4,17 L4,15 C4,14.448 3.552,14 3,14 L1,14 Z M8,14 C7.448,14 7,14.448 7,15 L7,17 C7,17.552 7.448,18 8,18 L10,18 C10.552,18 11,17.552 11,17 L11,15 C11,14.448 10.552,14 10,14 L8,14 Z M15,14 C14.448,14 14,14.448 14,15 L14,17 C14,17.552 14.448,18 15,18 L17,18 C17.552,18 18,17.552 18,17 L18,15 C18,14.448 17.552,14 17,14 L15,14 Z" id="Shape"></path>
            </g>
        </g>
    </g>
</svg>