<?xml version="1.0" encoding="UTF-8"?>
<svg width="15px" height="15px" viewBox="0 0 15 15" version="1.1" xmlns="http://www.w3.org/2000/svg" xmlns:xlink="http://www.w3.org/1999/xlink">
    <!-- Generator: Sketch 58 (84663) - https://sketch.com -->
    <title>icons8-phone</title>
    <desc>Created with Sketch.</desc>
    <g id="Page-1" stroke="none" stroke-width="1" fill="none" fill-rule="evenodd">
        <g id="Desktop-HD-Copy" transform="translate(-129.000000, -3433.000000)" fill="#FFFFFF" fill-rule="nonzero">
            <g id="icons8-phone" transform="translate(129.000000, 3433.000000)">
                <path d="M11.2336081,9.70997075 C10.9688277,9.55475452 10.6433956,9.55801537 10.3799195,9.71453594 L9.04558268,10.50953 C8.7468895,10.6875721 8.3738491,10.6667027 8.09993832,10.4527913 C7.62646397,10.0830114 6.86407896,9.46084218 6.20082356,8.79758626 C5.53756817,8.13433035 4.91539939,7.37194474 4.54561984,6.89847001 C4.33170856,6.62455901 4.31083917,6.25151832 4.48888118,5.9528249 L5.28387461,4.61848704 C5.44104723,4.35501075 5.44235157,4.02696972 5.28713546,3.76218909 L3.32932553,0.41786624 C3.13954449,0.0943903954 2.76259108,-0.0647388509 2.39802888,0.0246083079 C2.04390137,0.110694621 1.58412255,0.320693053 1.10217001,0.803298144 C-0.406947963,2.31241731 -1.20846308,4.85783308 4.46670745,10.5330081 C10.141878,16.2081831 12.6866396,15.4073195 14.1964097,13.8975482 C14.6796666,13.4142909 14.8890127,12.9538596 14.9757511,12.5990796 C15.0637939,12.2351693 14.9072734,11.8608243 14.58445,11.6716952 C13.7783697,11.200177 12.0396884,10.1821411 11.2336081,9.70997075 Z" id="Path"></path>
            </g>
        </g>
    </g>
</svg>