<?xml version="1.0" encoding="UTF-8"?>
<svg width="18px" height="18px" viewBox="0 0 18 18" version="1.1" xmlns="http://www.w3.org/2000/svg" xmlns:xlink="http://www.w3.org/1999/xlink">
    <!-- Generator: Sketch 58 (84663) - https://sketch.com -->
    <title>icons8-raise_a_hand_to_answer</title>
    <desc>Created with Sketch.</desc>
    <g id="Page-1" stroke="none" stroke-width="1" fill="none" fill-rule="evenodd">
        <g id="Desktop-HD-Copy" transform="translate(-1116.000000, -302.000000)" fill="#FFFFFF" fill-rule="nonzero">
            <g id="icons8-raise_a_hand_to_answer" transform="translate(1116.000000, 302.000000)">
                <path d="M9,0 C6.8027056,0 5,1.8027056 5,4 C5,6.1972944 6.8027056,8 9,8 C11.197294,8 13,6.1972944 13,4 C13,1.8027056 11.197294,0 9,0 Z M15,0 L15.005859,5.9003906 L14.597656,10 L12,10 L9,15 L6.2226562,10.371094 C3.7406563,11.064094 2,12.653 2,14.5 L2,16 L0,16 L0,18 L2,18 L12,18 L18,18 L18,16 L16.005859,16 L17,6 L17,0 L15,0 Z" id="Shape"></path>
            </g>
        </g>
    </g>
</svg>